<?xml version="1.0" encoding="UTF-8"?><svg id="Layer_1" xmlns="http://www.w3.org/2000/svg" viewBox="0 0 536.76 171.57"><defs><style>.cls-1{fill:#1eff71;}.cls-2{fill:#09163b;}</style></defs><g id="Vector_Smart_Object"><g><path class="cls-1" d="M25.57,171.24c-8.76,0-17.11-4.71-21.78-12.29-4.67-7.58-5.05-16.89-1.02-24.9L61.29,15.59c4.42-8.79,13.2-14.19,22.94-14.19s18.52,5.41,22.9,14.11l58.6,118.63c3.99,7.93,3.61,17.24-1.06,24.82-4.67,7.58-13.02,12.29-21.78,12.29h0c-3.33,0-6.61-.65-9.77-1.94-15.52-6.33-31.97-9.55-48.89-9.55s-33.37,3.21-48.89,9.55c-3.16,1.29-6.45,1.94-9.77,1.94m58.66-36.74c20.21,0,39.87,3.84,58.43,11.42,.16,.07,.23,.07,.23,.07,.09-.03,.31-.27,.33-.4,0,.02-.03-.07-.09-.19L84.54,26.77c-.04-.08-.06-.13-.3-.13s-.26,.05-.34,.21L25.37,145.31c-.11,.22-.13,.29-.13,.31,.02,.09,.22,.31,.35,.37,.04,0,.11-.02,.21-.07,18.56-7.58,38.22-11.42,58.43-11.42"/><path class="cls-2" d="M183.95,42.5l-2.6-7h-17.72l-2.6,7h-9.97L166.98,1.18h11.03l15.92,41.32h-9.98Zm-11.46-32.52l-6.44,17.78h12.89l-6.44-17.78h0Z"/><path class="cls-2" d="M234.71,42.5V23.6c0-2.79-1.24-4.77-4.46-4.77-2.79,0-5.08,1.86-6.19,3.47v20.2h-7.93V23.6c0-2.79-1.24-4.77-4.46-4.77-2.72,0-5.02,1.86-6.19,3.47v20.2h-7.87V12.58h7.87v3.84c1.3-1.73,5.2-4.58,9.79-4.58s7.25,2.04,8.3,5.39c1.73-2.66,5.7-5.39,10.28-5.39,5.51,0,8.8,2.91,8.8,9.04v21.62h-7.94Z"/><path class="cls-2" d="M248.16,27.5c0-8.67,6.44-15.67,15.49-15.67s14.99,6.69,14.99,16.42v1.86h-22.24c.56,3.66,3.53,6.69,8.61,6.69,2.54,0,6.01-1.05,7.93-2.91l3.53,5.2c-2.97,2.73-7.68,4.15-12.33,4.15-9.11,0-15.98-6.13-15.98-15.74m15.49-9.23c-4.89,0-7,3.41-7.31,6.38h14.75c-.25-2.85-2.23-6.38-7.43-6.38"/><path class="cls-2" d="M284.01,42.5V12.58h7.87v4.03c2.17-2.6,5.82-4.77,9.54-4.77v7.68c-.56-.12-1.24-.19-2.17-.19-2.6,0-6.07,1.49-7.37,3.41v19.76h-7.87Z"/><path class="cls-2" d="M304.87,4.64c0-2.6,2.11-4.64,4.65-4.64s4.71,2.04,4.71,4.64-2.11,4.71-4.71,4.71-4.65-2.11-4.65-4.71m.74,7.93h7.87v29.92h-7.87V12.58h0Z"/><path class="cls-2" d="M318.78,27.5c0-9.17,6.69-15.67,15.86-15.67,6.13,0,9.85,2.66,11.83,5.39l-5.14,4.83c-1.42-2.11-3.59-3.22-6.32-3.22-4.77,0-8.11,3.47-8.11,8.67s3.34,8.74,8.11,8.74c2.73,0,4.9-1.24,6.32-3.28l5.14,4.83c-1.98,2.72-5.7,5.45-11.83,5.45-9.17,0-15.86-6.51-15.86-15.74"/><path class="cls-2" d="M369.41,42.5v-3.16c-2.04,2.48-5.58,3.9-9.48,3.9-4.77,0-10.35-3.22-10.35-9.91,0-7.06,5.57-9.66,10.35-9.66,4.03,0,7.5,1.3,9.48,3.65v-3.78c0-3.03-2.6-5.02-6.57-5.02-3.16,0-6.13,1.24-8.61,3.53l-3.1-5.51c3.66-3.28,8.36-4.71,13.07-4.71,6.88,0,13.13,2.73,13.13,11.34v19.33h-7.92Zm0-7.19v-3.72c-1.3-1.73-3.78-2.67-6.32-2.67-3.1,0-5.64,1.67-5.64,4.52s2.54,4.46,5.64,4.46c2.54,0,5.02-.87,6.32-2.6"/><path class="cls-2" d="M404.78,42.5V24.41c0-4.15-2.17-5.58-5.51-5.58-3.1,0-5.45,1.73-6.81,3.47v20.2h-7.87V12.58h7.87v3.84c1.92-2.23,5.64-4.58,10.47-4.58,6.63,0,9.79,3.72,9.79,9.54v21.13h-7.94Z"/><path class="cls-2" d="M184.15,100.84l4.83-6.88c2.91,3.04,7.43,5.64,13.13,5.64,4.89,0,7.19-2.17,7.19-4.58,0-7.19-23.79-2.17-23.79-17.72,0-6.88,5.95-12.58,15.67-12.58,6.57,0,12.02,1.98,16.11,5.76l-4.89,6.57c-3.35-3.1-7.81-4.52-12.02-4.52-3.72,0-5.82,1.61-5.82,4.09,0,6.5,23.73,2.11,23.73,17.53,0,7.56-5.45,13.26-16.54,13.26-7.99,0-13.69-2.66-17.59-6.57"/><path class="cls-2" d="M225.11,99.16v-15.55h-4.96v-6.88h4.96v-8.18h7.87v8.18h6.07v6.88h-6.07v13.44c0,1.92,.99,3.35,2.72,3.35,1.18,0,2.29-.43,2.73-.93l1.67,6.01c-1.18,1.05-3.28,1.92-6.57,1.92-5.51,0-8.43-2.85-8.43-8.24"/><path class="cls-2" d="M264.49,106.66v-3.78c-2.04,2.23-5.64,4.52-10.53,4.52-6.57,0-9.66-3.59-9.66-9.42v-21.25h7.87v18.15c0,4.15,2.17,5.51,5.51,5.51,3.03,0,5.45-1.67,6.81-3.41v-20.26h7.87v29.92h-7.87v.02Z"/><path class="cls-2" d="M300.52,106.66v-3.84c-2.35,2.97-5.57,4.58-9.23,4.58-7.5,0-13.26-5.7-13.26-15.74s5.64-15.67,13.26-15.67c3.53,0,6.88,1.49,9.23,4.58v-15.24h7.93v41.32h-7.93Zm0-9.65v-10.59c-1.3-1.98-4.15-3.41-6.75-3.41-4.52,0-7.62,3.53-7.62,8.67s3.1,8.74,7.62,8.74c2.6,0,5.45-1.43,6.75-3.41"/><path class="cls-2" d="M314.01,91.67c0-8.67,6.44-15.67,15.49-15.67s14.99,6.69,14.99,16.42v1.86h-22.24c.56,3.66,3.53,6.69,8.61,6.69,2.54,0,6.01-1.05,7.93-2.91l3.53,5.2c-2.97,2.73-7.68,4.15-12.33,4.15-9.11,0-15.98-6.13-15.98-15.74m15.49-9.23c-4.89,0-7,3.41-7.31,6.38h14.75c-.25-2.85-2.23-6.38-7.43-6.38"/><path class="cls-2" d="M370.07,106.66v-18.09c0-4.15-2.17-5.58-5.51-5.58-3.1,0-5.45,1.73-6.81,3.47v20.2h-7.87v-29.92h7.87v3.84c1.92-2.23,5.64-4.58,10.47-4.58,6.63,0,9.79,3.72,9.79,9.54v21.13h-7.94Z"/><path class="cls-2" d="M386.94,99.16v-15.55h-4.96v-6.88h4.96v-8.18h7.87v8.18h6.07v6.88h-6.07v13.44c0,1.92,.99,3.35,2.73,3.35,1.18,0,2.29-.43,2.73-.93l1.67,6.01c-1.18,1.05-3.28,1.92-6.57,1.92-5.51,0-8.43-2.85-8.43-8.24"/><path class="cls-2" d="M247.17,170.82l-2.6-7h-17.72l-2.6,7h-9.97l15.92-41.32h11.03l15.92,41.32h-9.98Zm-11.46-32.52l-6.44,17.78h12.89l-6.44-17.78h0Z"/><path class="cls-2" d="M258.97,166.92l3.41-5.7c2.23,2.11,6.63,4.15,10.35,4.15,3.41,0,5.02-1.3,5.02-3.16,0-4.89-17.72-.87-17.72-12.64,0-5.02,4.34-9.42,12.27-9.42,5.02,0,9.05,1.73,12.02,4.09l-3.16,5.57c-1.8-1.86-5.2-3.47-8.86-3.47-2.85,0-4.71,1.24-4.71,2.91,0,4.4,17.78,.68,17.78,12.76,0,5.51-4.71,9.54-13.01,9.54-5.2,0-10.22-1.74-13.38-4.65"/><path class="cls-2" d="M288.29,166.92l3.41-5.7c2.23,2.11,6.63,4.15,10.35,4.15,3.41,0,5.02-1.3,5.02-3.16,0-4.89-17.72-.87-17.72-12.64,0-5.02,4.34-9.42,12.27-9.42,5.02,0,9.05,1.73,12.02,4.09l-3.16,5.57c-1.8-1.86-5.2-3.47-8.86-3.47-2.85,0-4.71,1.24-4.71,2.91,0,4.4,17.78,.68,17.78,12.76,0,5.51-4.71,9.54-13.01,9.54-5.2,0-10.22-1.74-13.38-4.65"/><path class="cls-2" d="M319.24,132.97c0-2.6,2.11-4.65,4.65-4.65s4.71,2.04,4.71,4.65-2.11,4.71-4.71,4.71-4.65-2.11-4.65-4.71m.74,7.93h7.87v29.92h-7.87v-29.92Z"/><path class="cls-2" d="M332.68,166.92l3.41-5.7c2.23,2.11,6.63,4.15,10.35,4.15,3.41,0,5.02-1.3,5.02-3.16,0-4.89-17.72-.87-17.72-12.64,0-5.02,4.34-9.42,12.27-9.42,5.02,0,9.05,1.73,12.02,4.09l-3.16,5.57c-1.8-1.86-5.21-3.47-8.86-3.47-2.85,0-4.71,1.24-4.71,2.91,0,4.4,17.78,.68,17.78,12.76,0,5.51-4.71,9.54-13.01,9.54-5.2,0-10.22-1.74-13.38-4.65"/><path class="cls-2" d="M366.49,163.33v-15.55h-4.96v-6.88h4.96v-8.18h7.87v8.18h6.07v6.88h-6.07v13.44c0,1.92,.99,3.35,2.73,3.35,1.18,0,2.29-.43,2.73-.93l1.67,6.01c-1.18,1.05-3.28,1.92-6.57,1.92-5.51,0-8.43-2.85-8.43-8.24"/><path class="cls-2" d="M403.68,170.82v-3.16c-2.04,2.48-5.58,3.9-9.48,3.9-4.77,0-10.35-3.22-10.35-9.91,0-7.06,5.58-9.66,10.35-9.66,4.03,0,7.5,1.3,9.48,3.65v-3.78c0-3.04-2.6-5.02-6.57-5.02-3.16,0-6.13,1.24-8.61,3.53l-3.1-5.51c3.66-3.28,8.36-4.71,13.07-4.71,6.88,0,13.14,2.73,13.14,11.34v19.33h-7.93Zm0-7.19v-3.72c-1.3-1.73-3.78-2.67-6.32-2.67-3.1,0-5.64,1.67-5.64,4.52s2.54,4.46,5.64,4.46c2.54,0,5.02-.87,6.32-2.6"/><path class="cls-2" d="M439.05,170.82v-18.09c0-4.15-2.17-5.58-5.51-5.58-3.1,0-5.45,1.73-6.81,3.47v20.2h-7.87v-29.92h7.87v3.84c1.92-2.23,5.64-4.58,10.47-4.58,6.63,0,9.79,3.72,9.79,9.54v21.13h-7.94Z"/><path class="cls-2" d="M452.41,155.83c0-9.17,6.69-15.67,15.86-15.67,6.13,0,9.85,2.66,11.83,5.39l-5.14,4.83c-1.42-2.11-3.59-3.22-6.32-3.22-4.77,0-8.12,3.47-8.12,8.67s3.34,8.74,8.12,8.74c2.73,0,4.89-1.24,6.32-3.29l5.14,4.83c-1.98,2.72-5.7,5.45-11.83,5.45-9.17,0-15.86-6.51-15.86-15.74"/><path class="cls-2" d="M482.14,155.83c0-8.67,6.44-15.67,15.49-15.67s14.99,6.69,14.99,16.42v1.86h-22.24c.56,3.66,3.53,6.69,8.61,6.69,2.54,0,6.01-1.05,7.93-2.91l3.53,5.2c-2.97,2.73-7.68,4.15-12.33,4.15-9.11,0-15.98-6.13-15.98-15.74m15.49-9.23c-4.89,0-7,3.41-7.31,6.38h14.75c-.25-2.85-2.23-6.38-7.43-6.38"/><path class="cls-2" d="M528.03,141.73c-4.81,0-8.73-3.91-8.73-8.73s3.91-8.73,8.73-8.73,8.73,3.87,8.73,8.73-3.87,8.73-8.73,8.73m0-16.01c-4.03,0-7.28,3.21-7.28,7.28s3.25,7.29,7.28,7.29,7.29-3.29,7.29-7.29-3.25-7.28-7.29-7.28m2.35,12.31l-2.59-3.95h-1.61v3.95h-1.52v-10h4.07c1.69,0,3.37,1.2,3.37,3.05,0,2.22-1.97,2.96-2.55,2.96l2.67,3.99h-1.84Zm-1.65-8.73h-2.55v3.46h2.55c.87,0,1.81-.66,1.81-1.69,0-1.11-.95-1.77-1.81-1.77"/></g></g></svg>